<?xml version="1.0" encoding="UTF-8"?>
<svg width="89px" height="90px" viewBox="0 0 89 90" version="1.1" xmlns="http://www.w3.org/2000/svg" xmlns:xlink="http://www.w3.org/1999/xlink">
    <title>01</title>
    <defs>
        <polygon id="path-1" points="0 0 89 0 89 90 0 90"></polygon>
    </defs>
    <g id="Page-1" stroke="none" stroke-width="1" fill="none" fill-rule="evenodd">
        <g id="Homepage_full" transform="translate(-100.000000, -4401.000000)">
            <g id="01" transform="translate(100.000000, 4401.000000)">
                <g id="Group-3">
                    <mask id="mask-2" fill="white">
                        <use xlink:href="#path-1"></use>
                    </mask>
                    <g id="Clip-2"></g>
                    <path d="M89,45.0134809 C89,69.8736703 69.0705117,90.0274188 44.4861462,90.0274188 C19.9022349,90.0274188 -0.0272533799,69.8745843 -0.0272533799,45.0134809 C-0.0272533799,20.1532915 19.9022349,0 44.4861462,0 C69.0705117,0 89,20.1532915 89,45.0134809" id="Fill-1" fill="#FFFFFE" mask="url(#mask-2)"></path>
                </g>
                <path d="M42.6299934,39.9848034 C42.6956883,40.254977 42.4632296,40.6588589 42.8302939,40.7953241 C43.1890889,40.7172127 43.6448183,40.75489 44.1152486,40.7921078 C45.0579469,40.8674623 46.0603678,40.9423574 46.4618875,40.0891051 C46.0419916,39.6181392 45.3556411,39.4044815 44.6357541,39.4044815 C43.9163264,39.4044815 43.1697939,39.6140039 42.6299934,39.9848034 M40.8107511,42.7113511 L40.9076855,43.3201607 C42.2234203,44.1968464 42.6281558,45.6828011 44.4496952,45.5477143 C46.0654213,45.6437454 47.2773307,44.1297625 48.0822076,42.9181166 C47.0370621,42.7742997 45.8839565,42.8055443 44.7000707,42.8367889 C43.4068467,42.8712498 42.0768703,42.9057107 40.8107511,42.7113511 M76.7724863,37.9640152 C80.2046983,38.872405 83.6470172,42.6125632 87.2813673,40.1860551 C84.1165288,34.9328329 79.4053343,30.0821142 80.7155563,23.2124453 C80.8524588,22.7437768 80.5497112,22.2691351 80.1141956,22.2029701 C78.0611163,23.0415191 76.4701981,25.0655237 75.6584301,27.0541483 C75.3244429,28.2299548 75.1259801,29.4806564 74.6555498,30.5889194 C72.195438,29.3083518 69.5713187,28.0686777 66.5741629,28.3677985 C65.4941026,28.5024258 63.9445308,28.5731855 63.7451492,29.6832865 C67.1456622,31.5009851 69.9425176,34.5344647 72.0263771,37.7641419 C73.4780957,37.5279697 75.2573698,37.7301404 76.7724863,37.9640152 M65.260725,18.5629783 C62.7679955,18.4311079 60.6809203,19.8458434 58.3912476,20.486357 C58.1914066,18.536788 59.6720677,16.4783226 60.0097301,14.5218615 C56.3069288,14.760331 53.3740896,16.9897226 50.3107795,18.7702033 C49.6019181,17.0568065 48.8907598,15.3351391 48.1869519,13.6157691 L52.2274156,9.774985 L52.3307817,9.26955822 L46.8730546,8.96538319 C45.9331128,7.31769188 45.5628326,5.33320253 44.4515328,3.81784113 C43.5419116,5.53537324 42.9309035,7.35307175 42.0226605,9.06876594 L36.5713652,9.37340045 L36.5713652,9.774985 L40.7087633,13.5114674 C40.2029588,15.4320892 39.7329878,17.5190423 38.4880013,18.9705361 C36.0641824,17.5185828 33.6743595,15.9375159 31.0162443,14.9294192 C30.3767531,14.7231132 29.4648349,14.3867747 28.8924167,14.8260365 C29.7331272,16.6786554 30.9101219,18.6718748 30.7121185,20.6940415 C29.6003593,20.4895733 28.7265717,19.7760026 27.6818855,19.4764224 C26.4327643,19.135489 24.950725,18.4692446 23.7383562,18.874505 C25.7592771,21.7016787 27.4085398,24.6611822 27.9791203,28.0636234 C34.6832121,24.8275136 42.5009007,23.0479518 50.6162836,24.4305238 C54.4201539,25.036117 57.9180608,26.5854798 61.3194927,27.8628312 C61.45272,24.2945181 63.7083968,21.4278292 65.260725,18.5629783 M50.6002044,32.8026888 C50.4665177,32.8054456 50.3365062,32.8123378 50.2051164,32.8164731 C49.4994709,33.2869795 47.4436352,32.9488031 48.1855737,34.5326268 C49.4659344,33.5194758 51.2507214,34.2293707 52.5301633,34.7329596 C53.00335,34.4977064 52.9004434,34.0267405 52.9321423,33.6196422 C52.5209752,32.8555288 51.5396869,32.7838501 50.6002044,32.8026888 M52.6270976,29.4815753 C51.6866964,27.3927843 49.5316292,26.5478026 47.5759437,26.0428353 C46.6171662,25.9247492 45.6225552,25.8447999 44.6352947,25.8351508 C44.4510734,25.8337724 44.2659333,25.8310155 44.0817121,25.8351508 C41.3216091,25.8902883 38.6841671,26.5992642 37.073035,28.8723063 C36.8414951,29.5132794 35.825292,30.4147769 36.7693686,30.989585 C38.8908991,30.8535793 41.3119616,30.587541 42.726009,32.4084559 C42.726009,34.0267405 43.7706951,36.1798586 42.0203635,36.9545401 C41.2646429,36.2542942 40.4358769,36.4394642 39.59241,36.6246342 C38.8178538,36.7941819 38.0304343,36.9641891 37.2747136,36.4481943 C36.5327752,36.0098514 36.063723,36.5212515 35.7595972,37.1613056 C35.3208657,41.3361308 37.506713,45.9437851 41.4121118,48.2673699 C42.9947607,48.8380427 45.1222636,49.3811468 46.7742826,48.570626 C50.7472139,46.719845 52.3928013,42.4797738 53.1329021,38.5723652 C53.0336707,37.8289284 53.0690449,36.3806509 52.025737,36.3443521 C50.8482829,37.0900863 49.130569,36.6499055 47.8823666,36.3443521 C47.143644,36.5832811 47.1105668,37.6630565 46.2703158,37.8675246 L45.758539,37.4590479 C45.320267,35.6101048 45.0496776,32.9818855 46.7687698,31.7026963 C48.6899999,30.9275554 50.9456767,30.5889194 52.9321423,31.19681 C53.3028819,30.5581344 52.7300043,30.054086 52.6270976,29.4815753 M36.1615762,33.819975 C36.0945031,34.2560205 36.1951128,35.0334588 36.8672217,34.7329596 C37.9128267,33.2846821 39.7637679,34.430163 40.9081449,34.5326268 L40.9081449,34.125069 C40.2801388,33.1390273 38.9887523,32.6437091 37.6771521,32.6928733 C37.3744045,32.7039008 37.0666033,32.7480108 36.7707468,32.8164731 C36.3320153,32.9143421 36.0265113,33.3159267 36.1615762,33.819975 M25.4519354,29.2734314 C21.9494345,26.9829291 17.5088293,29.1401825 14.2447594,30.3872082 C13.9415524,27.3211056 12.6965658,24.5279334 10.1009296,22.5071452 C9.84871651,22.3821669 9.5009472,22.118426 9.18717384,22.0991279 C8.99973675,22.086722 8.82102834,22.162536 8.68274755,22.4028435 C9.85882341,29.6423929 5.15360116,34.6939039 1.81878294,40.1855956 C2.92916394,41.0930665 4.71303212,40.9575202 6.0600065,40.6910224 C9.59466574,39.2767464 12.9616423,36.8162369 17.1707075,37.6598402 C18.4152347,35.5384261 20.5064446,33.483177 22.2214021,31.7991869 C23.269304,30.8921755 24.7081593,30.3164485 25.4519354,29.2734314 M88.8998498,48.0187918 C88.9333863,49.1582995 89.0404276,50.137449 88.5961833,51.3040659 C86.1769585,51.9923653 84.1927899,50.9764575 82.2077025,49.9605496 C80.4068364,49.0392945 78.604592,48.1180393 76.4752515,48.4681622 L76.981056,51.0008099 C81.1225888,51.1368156 83.7094963,55.1085512 87.988391,54.937625 C87.3801393,56.1524872 88.2594397,59.3513793 85.5664098,58.0726495 C82.7709326,57.4004319 80.7500116,54.937625 77.6871609,54.937625 C77.3173402,55.6167348 77.5511772,56.5563692 77.4859417,57.3590788 C80.7178533,57.8663435 83.0419813,60.5979455 86.2725147,61.1019939 C85.9688482,62.2130138 85.6674788,63.4559043 84.7573982,64.1336356 C82.1296037,63.4935815 80.0765244,61.132779 77.2787502,61.2007818 L76.7798368,63.5262045 C79.4393302,63.5942074 81.1570441,65.9471988 83.5473264,66.6534179 C83.6125619,67.6344053 82.7360178,68.5110911 82.2311321,69.3863984 C80.1096016,68.7491011 78.4920378,66.9263484 76.0677596,67.0605162 C76.0342231,66.1475316 76.5763205,65.1100283 76.3714261,64.1336356 C73.6494536,64.9432374 71.8237796,62.4133466 69.8060745,60.8956879 C69.7477301,55.92964 64.5201648,52.6710156 64.2440626,48.0187918 C64.191231,47.0906445 64.3327277,46.1009269 64.7553799,45.0367738 C66.4735533,41.0632003 65.9337528,35.9046308 64.0497344,32.2007714 C63.4773163,31.2262167 62.4629508,30.45613 61.5174961,29.8831599 C62.9007634,32.8146352 64.5858596,36.2781871 63.7446897,39.8814206 C63.647296,42.6635653 62.0063026,45.3363541 61.987467,48.0187918 C61.9810354,48.9745079 62.1845516,49.9316025 62.7349184,50.8965082 C64.9249002,54.8425129 68.8652138,58.5766979 67.3836338,63.5252856 C66.9761419,65.0447823 65.7633137,66.2201293 65.460566,67.7662758 C68.0226657,69.8890683 70.4460251,72.2811154 73.84516,72.4152832 C75.05661,71.6424397 74.3840416,68.2096729 76.8758524,69.7925777 L80.5147964,71.6134926 C80.24972,72.5871283 79.4338173,73.4610572 78.6955541,74.1314369 C77.3145838,73.4596788 75.9680688,72.6537528 74.2466796,72.7189988 C73.7390375,73.2579675 73.3026031,73.8631012 73.3411931,74.6354852 C74.5521837,74.8353586 75.6634835,75.3462991 76.6755519,76.0548155 C76.205581,77.0670476 75.290447,77.7006689 74.4483583,78.4762693 L71.6257762,77.4667942 C71.1548865,78.1413092 70.1754358,78.8498257 70.5195299,79.5900462 C71.1558053,79.8634361 71.862829,80.2314787 72.3314217,80.7042825 C71.0855164,82.0510151 69.5065426,82.9180518 67.9868321,83.8319553 C66.6779883,79.5532879 62.365557,76.5528907 62.7358372,71.6056814 L62.5350774,71.4053486 C61.5216307,72.5453158 61.8602119,74.367609 61.9254474,75.8475906 C63.138735,78.9463162 66.0325248,81.3406608 66.472175,84.7385072 C65.9649923,85.613355 64.8229124,85.7874975 63.9463684,86.158297 C64.0474374,80.0306864 54.7555193,75.3830574 60.7139974,69.1851466 C62.7013818,66.1502885 66.0320654,63.254193 64.8513955,59.074773 C63.6399455,55.0410078 59.3555379,52.5414426 59.3932091,48.0187918 L59.4005595,47.665912 C60.3758756,42.9498207 63.3404137,37.9309327 60.915676,32.9138827 C60.2394324,30.8953919 58.7293694,28.6025922 56.6753713,27.7585295 C59.7377625,31.2643534 60.951969,36.9844062 59.2002591,41.701876 C58.3172834,43.5783878 57.1016988,45.8137526 56.9794971,48.0197108 L56.9721467,48.0197108 C56.9069112,49.1716244 57.1421264,50.3171053 57.8854431,51.4028539 C60.2109493,55.1765541 64.249116,59.3215132 61.9259068,64.2388563 C59.2999499,68.1775094 54.7201452,72.1841653 57.2781101,77.3712226 C59.1295108,80.4704077 61.9943581,83.5617817 61.2216395,87.3704023 L58.1909471,88.3798774 C60.2118681,81.2763337 50.3103201,77.1015085 54.4550687,69.9947484 C57.0144119,66.1898037 61.5910008,62.6187337 59.0004181,57.5681417 C57.4513057,54.438631 54.251093,52.5864715 54.352162,48.6753872 L54.4619597,48.0192513 C55.5052677,42.4724221 59.7203052,37.2228757 56.7732245,31.2951385 C55.9982088,29.5459024 54.4504746,27.7612863 52.7318419,26.7499733 L52.6289353,26.853356 C56.0648225,30.1877944 57.1104275,35.6730534 55.2576486,40.0826724 C54.3935085,42.6704575 52.4961673,45.2476746 52.1102674,48.0201703 C51.9265056,49.3269283 52.0813249,50.682391 52.8370456,52.109073 C55.0251898,55.5753817 58.8630561,59.2516724 56.4681798,63.7334295 C53.9460483,67.434532 49.7360643,71.0354681 51.4174853,75.848969 C53.2698047,80.0600931 57.1379917,84.0727223 55.0495383,89.2937809 L51.9223709,90 C54.4137223,84.9112712 50.6783032,79.8615982 48.4906183,75.4487629 C45.8288279,69.1166842 54.2088278,66.084583 54.3434334,60.2951489 C54.311275,56.5595855 50.339722,54.437712 49.5003897,51.0026478 C48.4841867,50.1448007 47.4454728,50.5031942 46.3419829,50.8620472 C45.5789118,51.1097064 44.7846012,51.3573655 43.9448095,51.2034401 C43.4123595,51.3104986 42.7797594,51.0848945 42.1434839,50.8592904 C40.9674081,50.4420835 39.7798471,50.0248767 39.1922686,51.7088668 C38.1135865,55.5124331 33.200254,58.3088217 35.3594557,62.8209044 C37.4143727,66.8293983 42.3589447,69.7613331 40.7073851,74.9497688 C39.2285615,79.7963522 34.3427933,84.4104392 37.3725668,90 C36.1280397,89.5965775 33.8034522,90.3689616 33.8369888,88.3798774 C31.9189744,81.6112938 40.1000521,77.6675865 37.5728673,70.9022192 C36.3972508,66.7586386 31.0392146,64.4690552 32.2189657,59.4850877 C33.0909157,55.3819411 37.6941501,52.5138739 37.0482272,48.0197108 C36.995855,47.6433976 36.9030553,47.2578948 36.7712062,46.8563102 C35.0525734,42.0078889 31.5477755,37.1567108 33.6366884,31.4968497 C34.2104847,29.8799435 35.3562399,28.4992094 36.3627955,27.0546078 C33.0293554,28.8392238 31.3474751,32.612005 31.4163858,36.4500322 C31.2712139,40.624398 34.353819,44.2000627 34.7925504,48.0197108 C34.9652866,49.5612625 34.7130734,51.140032 33.6366884,52.8143731 C31.4499223,55.7821472 28.5901285,58.9121175 29.9012693,62.8199855 C31.1476341,66.7623144 36.063723,69.1502262 35.7609754,73.7326092 C35.7274388,79.1517033 29.4303796,82.5261163 31.2151665,88.5880214 L28.0811081,87.571654 C26.836581,82.1847235 32.5598439,79.4287691 32.6255388,74.445261 C33.4354691,68.7141807 26.1272602,66.5877124 26.5659917,61.0009085 C26.5342927,56.755783 30.2701712,54.067372 31.9198933,50.497221 C32.2033459,49.6283464 32.2970645,48.8077171 32.2593933,48.0201703 C32.0572552,44.0723276 28.5005446,40.9860079 29.0908795,36.5474418 C29.2888829,33.2805468 30.4006421,30.4175338 32.5226321,27.9607002 C29.5948464,29.1374256 28.385234,32.5086223 27.5766819,35.3376338 C26.1727413,39.8745284 29.5231793,43.9551605 29.8594635,48.0206298 C30.0078512,49.8153543 29.5695792,51.6004298 27.8812671,53.424561 C25.4551513,56.2838982 22.9950395,59.891267 24.7462899,63.7343485 C26.6009064,67.9735008 32.4275354,71.2743971 29.9008099,76.5620802 C28.5216772,79.8969781 25.2203955,82.4213551 25.3559199,86.3604677 C24.4812134,85.9896682 23.5734299,85.6202472 22.8301132,84.948489 C22.8301132,79.931439 29.9660454,76.7977929 26.5659917,71.5105693 C26.2646222,72.5540459 26.2003056,73.9719977 25.9641716,75.1501016 C24.7844205,78.2157448 22.2599921,80.670281 21.3149967,83.8406854 C19.7355636,83.2304974 18.0835445,81.9490108 16.7696473,80.6022782 L18.5898084,79.4885013 C18.3876704,78.8130674 17.8497076,78.2414756 17.3792772,77.6694244 C16.1972291,77.503093 15.4212947,78.2786934 14.4468975,78.5824089 C13.6048088,77.8398911 12.7925814,77.166295 12.1213912,76.2569863 C12.7255083,74.5357783 17.4463503,75.9587845 15.0551492,73.1297729 C13.4403419,72.1198383 11.8195624,73.5616831 10.4059743,74.2352791 L8.4893382,71.8142848 C10.1390602,70.8048097 11.785107,69.3873173 13.8372675,69.7934967 C14.3426126,70.7046433 14.3779868,72.0444838 15.352384,72.5195849 C18.8213484,72.4515821 21.2791632,69.8279576 23.9381972,67.773168 C22.0849589,65.0149161 20.5762741,61.2067551 22.2227803,57.8713978 C23.541731,54.5286888 26.9789964,51.7134616 27.135194,48.0183324 C27.1696494,47.1770265 27.038719,46.2925296 26.6711953,45.3404894 C24.8537906,40.6583994 24.2124617,34.3304561 27.6814261,30.1864159 C25.7951107,30.6932212 24.6828921,33.0443747 24.0420226,34.8299096 C21.956785,39.4012652 24.594227,43.6367416 24.6851891,48.0178729 C24.697593,48.8063387 24.6337358,49.5957234 24.4430829,50.3915408 C22.6578365,53.9947743 19.7649655,57.1559891 19.295454,61.3023267 C17.240537,62.61322 15.5536032,64.9060197 12.6262769,64.1327167 C12.5229109,64.9060197 12.7590449,66.085502 13.0273372,66.9617282 C10.7059655,66.8643187 9.12285719,68.5758776 7.16809048,69.3845604 C6.12662018,69.0496003 5.85557144,67.7037866 5.45267358,66.7613954 C7.74050865,65.9885519 9.3916089,63.6943738 12.0184846,63.7306726 C12.3226105,62.884772 11.8475861,62.1091716 11.7134399,61.3023267 C10.45559,60.7436003 8.91474689,61.6777209 7.46991932,62.6113821 C5.16095164,64.1037695 3.09822484,65.5956975 2.83039194,60.9981517 C6.09538066,60.7959809 8.1824559,57.7643392 11.4162051,57.4620021 L11.5126801,55.0410078 C9.67781798,54.8553783 8.17005198,55.7058737 6.66274538,56.5563692 C5.15497938,57.4068646 3.64767278,58.2578195 1.81281068,58.0717306 L1.00379912,54.8402155 C5.24731971,55.1053348 7.77588281,51.3013091 11.8177248,51.096841 C12.3547688,50.3906219 12.4195448,49.3466858 12.5229109,48.3707527 C10.4868295,48.1056333 8.74522658,49.0043741 6.99994838,49.9031148 C4.96432646,50.9516456 2.92319167,52.0001765 0.401979053,51.2006832 C0.401979053,51.2006832 0.240728027,49.1656512 0.153441147,48.0183324 L0.159872812,48.0183324 C0.127714488,47.569881 0.0978531867,47.2565164 0.0978531867,47.2565164 C4.27246308,48.8770984 7.94126847,45.8780797 11.5126801,44.3296358 C12.4213824,44.0580838 13.8377269,44.5290496 14.2452188,43.520034 C14.2098447,42.7448931 15.6225139,41.8392602 14.4464381,41.298913 C12.1838703,40.9915216 10.2502362,42.0005373 8.34967919,43.0095529 C5.86430013,44.3287168 3.43588724,45.6478807 0.401519649,44.0245418 L0,43.2153995 C1.11405623,27.9947016 9.69665357,13.2794305 23.9381972,6.03850263 C29.7064817,2.74174156 36.8722752,1.06096777 44.0991695,1.00169499 C52.8209664,0.928637846 61.6332661,3.21730222 68.1894296,7.85803906 C74.5553996,11.7640691 80.6443485,18.2004495 83.9493055,24.7346989 C87.1100093,30.4598059 88.5649438,36.8833208 89,43.7222047 C85.9444998,46.0310861 83.4453386,44.5828087 80.8699162,43.1340717 C78.7892726,41.963779 76.6590134,40.7934862 74.1456106,41.6044665 C74.4488177,42.4816117 74.6165004,43.3890825 75.2592074,44.1297625 C77.3494985,44.1150591 79.1669033,45.0243679 80.9572031,45.9336766 C83.4370693,47.1931083 85.8654822,48.4525399 88.8957151,47.2574353 L88.8998498,48.0187918 M44.2461789,16.6432755 C45.8311249,17.557179 47.5125459,18.7329855 48.7919878,19.9786328 L48.2893991,20.4845191 C45.7640518,20.2157239 43.104099,20.550684 40.7101415,20.5883613 C40.4432274,20.3186472 39.9052646,19.9133868 40.406475,19.5747509 L44.2461789,16.6432755" id="Fill-4" fill="#15673F"></path>
                <path d="M41,41 L48,41 L48,38 L41,38 L41,41 Z M43.3969261,39.9114039 C43.6273412,39.9114039 43.8769212,39.9327578 44.1308568,39.9536574 C44.3852281,39.9750114 44.6439549,39.9959109 44.8926638,39.9959109 C45.5190094,39.9959109 46.0830689,39.8623353 46.3557339,39.2585189 C45.9576255,38.7928214 45.3068882,38.5815538 44.6243544,38.5815538 C43.9422562,38.5815538 43.2344596,38.7887324 42.7226682,39.1553839 C42.7849543,39.4225352 42.5645573,39.8218991 42.9125754,39.9568378 C43.058926,39.9236711 43.2222637,39.9114039 43.3969261,39.9114039 L43.3969261,39.9114039 Z" id="Fill-5" fill="#FFFFFE"></path>
                <path d="M45.3946793,40 C45.1217891,40 44.8379068,39.9852233 44.5588037,39.9701253 C44.2801785,39.9553485 44.0063325,39.9402506 43.7535148,39.9402506 C43.5618704,39.9402506 43.3826518,39.9489239 43.2220719,39.9723739 C42.8402168,39.8769676 43.0820425,39.5946033 43.0137004,39.405718 C43.575252,39.1464825 44.351866,39 45.1002828,39 C45.8491776,39 46.5631845,39.1493736 47,39.478638 C46.7008244,39.9055573 46.0819229,40 45.3946793,40" id="Fill-6" fill="#FFFEFD"></path>
                <path d="M42.1277563,39.5633598 C43.0151093,39.7129692 43.2347046,39.9375358 43.9362133,40 C44.6812992,39.9905542 44.5736377,39.8826891 45.8736931,39.5627504 C45.9591388,39.5411164 46.0766265,39.4070468 45.931369,39.3037523 C45.1234804,38.7321284 44.5659476,39.1407359 44.0596822,39.1514005 C43.3885067,39.1568852 42.7587724,38.7415742 42.1029771,39.2812042 C41.9910433,39.3908975 41.9329403,39.4984579 42.1277563,39.5633598" id="Fill-7" fill="#15673F"></path>
                <polyline id="Fill-8" fill="#15673F" points="76.4937187 89 76.4937187 84.8458481 75 84.8458481 75 84 79 84 79 84.8458481 77.5098388 84.8458481 77.5098388 89 76.4937187 89"></polyline>
                <polyline id="Fill-9" fill="#15673F" points="80 89 80 84 81.5648436 84 82.5036583 87.4107774 83.4324127 84 85 84 85 89 84.0291751 89 84.0291751 85.0640459 83.001189 89 81.99561 89 80.9712822 85.0640459 80.9712822 89 80 89"></polyline>
            </g>
        </g>
    </g>
</svg>