<?xml version="1.0" encoding="UTF-8"?>
<svg width="87px" height="98px" viewBox="0 0 87 98" version="1.1" xmlns="http://www.w3.org/2000/svg" xmlns:xlink="http://www.w3.org/1999/xlink">
    <title>02</title>
    <g id="Page-1" stroke="none" stroke-width="1" fill="none" fill-rule="evenodd">
        <g id="Homepage_full" transform="translate(-251.000000, -4397.000000)" fill-rule="nonzero">
            <g id="02" transform="translate(251.000000, 4397.000000)">
                <polygon id="Path" points="0 0 87 0 87 98 0 98"></polygon>
                <path d="M87,48.9994424 C87,76.0628058 67.5306684,98 43.5064185,98 C19.4832849,98 0,76.0628058 0,48.9994424 C0,21.9383094 19.4832849,0 43.5064185,0 C67.5312265,0 87,21.9383094 87,48.9994424 Z" id="Path" fill="#F3F3D7"></path>
                <path d="M85,48.9994429 C85,74.957469 66.4271242,96 43.5069331,96 C20.5878512,96 2,74.9569119 2,48.9994429 C2,23.042531 20.5878512,2 43.5069331,2 C66.4271242,2 85,23.042531 85,48.9994429 Z" id="Path" fill="#000000"></path>
                <path d="M82,48.5002787 C82,72.5245763 64.9928163,92 44.0069567,92 C23.0205406,92 6,72.5240188 6,48.5002787 C6,24.4754237 23.0205406,5 44.0069567,5 C64.9928163,5 82,24.4759812 82,48.5002787 Z" id="Path" fill="#E1DFC3"></path>
                <path d="M81,48.5 C81,71.971672 64.4404276,91 44.0069336,91 C23.5728849,91 7,71.9711145 7,48.5 C7,25.027213 23.5723302,6 44.0069336,6 C64.4404276,6 81,25.027213 81,48.5 Z" id="Path" fill="#000000"></path>
                <path d="M80,49 C80,71.6434391 63.8881945,90 44.0061871,90 C24.1241797,90 8,71.6434391 8,49 C8,26.3565609 24.1241797,8 44.0061871,8 C63.8881945,8 80,26.3565609 80,49 Z" id="Path" fill="#FFFFFF"></path>
                <path d="M47,8 L47,90 C48.8977297,89.8257337 50.7760023,89.4801991 52.6120909,88.9675774 L52.6120909,9.03298497 C50.7762152,8.51931997 48.8978651,8.17358298 47,8 L47,8 Z M58.6936747,11.4144174 L58.6936747,86.5855826 C60.6748744,85.568467 62.554211,84.3623654 64.3057657,82.9839121 L64.3057657,15.0166502 C62.5539494,13.6384065 60.6746518,12.4321417 58.6936747,11.4144174 L58.6936747,11.4144174 Z M70.3856707,76.9642583 C72.6033112,74.2218153 74.4963916,71.1312953 76,67.7725477 L76,30.2280146 C74.495832,26.8687047 72.6033112,23.7798716 70.3856707,21.0357417 L70.3856707,76.9642583 Z" id="Shape" fill="#B67D36"></path>
                <path d="M43.6686218,8 C42.583943,8 41.5121703,8.05829397 40.4516204,8.16535309 L40.4516204,89.8335259 C41.5121703,89.9411455 42.583943,90 43.6686218,90 C44.6382675,90 45.5989349,89.9540374 46.5495019,89.868278 L46.5495019,8.13116144 C45.5916692,8.0442252 44.6304003,8 43.6686218,8 Z M28.7255296,11.7078329 L28.7255296,86.2916066 C30.6706925,87.3113601 32.7136005,88.1331058 34.8234111,88.7444375 L34.8234111,9.25388091 C32.7137723,9.86619064 30.670924,10.6882879 28.7255296,11.7078329 L28.7255296,11.7078329 Z M17,21.5359723 L17,76.4634672 C18.8203301,78.763837 20.8656764,80.8282283 23.0978814,82.6095575 L23.0978814,15.3887609 C20.838569,17.2003339 18.7928011,19.2626514 17,21.5359723 L17,21.5359723 Z M52.1771501,9.16083476 L52.1771501,88.8391652 C54.2839828,88.2528932 56.3267891,87.4574769 58.2750315,86.4648069 L58.2750315,11.5346326 C56.3269233,10.5418084 54.2840822,9.74656632 52.1771501,9.16083476 Z M63.9032408,15.125317 L63.9032408,82.8741225 C66.1292734,81.1376347 68.1729362,79.1231296 70,76.8743275 L70,21.1251119 C68.1729362,18.8763099 66.1292734,16.8612442 63.9032408,15.125317 Z" id="Shape" fill="#2B5432"></path>
                <path d="M35.3871329,9.09295813 L35.3871329,88.9064791 C37.2215693,89.4400583 39.1001443,89.8060497 41,90 L41,8 C39.1001611,8.19376321 37.2215861,8.55956625 35.3871329,9.09295813 L35.3871329,9.09295813 Z M23.6935664,15.2528071 L23.6935664,82.7471929 C25.4420333,84.1576506 27.3214744,85.3955197 29.305874,86.4436651 L29.305874,11.5568977 C27.3216835,12.6051829 25.4422727,13.8428435 23.6935664,15.2528071 L23.6935664,15.2528071 Z M17.6123075,21.4250377 C15.3749952,24.2728071 13.4796033,27.4807687 12,30.965628 L12,67.0349348 C13.4796033,70.5192313 15.3749952,73.7283185 17.6123075,76.5760879 L17.6123075,21.4250377 Z" id="Shape" fill="#B67D36"></path>
                <path d="M81.9181669,30 L5.11581449,30 C4.70598048,31.3175362 4.33382279,32.6516566 4,34 L83,33.871076 C82.6761622,32.5662073 82.3153396,31.2750917 81.9181669,30 L81.9181669,30 Z" id="Path" fill="#000000"></path>
                <path d="M3.86079599,34.1082648 C3.79536196,34.3270381 3.73218427,34.5463725 3.66957067,34.7662678 L84,34.4913987 C83.9514886,34.3275991 83.9063616,34.1626776 83.8555939,34 L3.86079599,34.1082648 Z M17.275901,61.0443156 L3,61.0443156 C3.05076778,61.26365 3.10548417,61.4818624 3.15963648,61.7006358 L17.275901,61.7006358 L17.275901,61.0443156 Z M17.275901,63.4513837 L3.62162332,63.4513837 C3.67295519,63.6353777 3.72823566,63.8165669 3.78125979,64 L17.2764651,64 L17.2764651,63.4513837 L17.275901,63.4513837 Z" id="Shape" fill="#FFFFFF"></path>
                <path d="M69.4189753,61.0183802 L83.7259654,61.0183802 C84.5762499,57.09359 85.0035332,53.0832381 85,49.0608845 C85,43.8035612 84.2806073,38.7409535 82.9544583,34 L3.96900213,34.2814474 C2.69221628,38.941413 2,43.9063756 2,49.0608845 C1.99632911,53.1413399 2.43615573,57.2092606 3.31119673,61.1878231 L17.3480762,61.1878231 L17.3480762,61.8598507 L3.46816042,61.8598507 C3.60848484,62.4629523 3.76212067,63.0608845 3.92185756,63.6524986 L17.3480762,63.6524986 L17.3480762,64.2142447 L4.07882125,64.2142447 C4.43573831,65.4919299 4.84037648,66.7547976 5.29182327,68 L81.7115056,68 C82.1842362,66.7001269 82.6055598,65.3808219 82.9744255,64.0453762 L69.4195299,64.0453762 L69.4195299,63.4853532 L83.1319438,63.4853532 C83.2944539,62.8742102 83.4469804,62.2573234 83.5889688,61.6346927 L69.4195299,61.6346927 L69.4195299,61.0183802 L69.4189753,61.0183802 L69.4189753,61.0183802 Z" id="Path" fill="#000000"></path>
                <path d="M71.0005815,61 L71.0005815,61.6108159 L85.8557916,61.6108159 C85.9057993,61.4081594 85.9534812,61.2049336 86,61 L71.0005815,61 L71.0005815,61 Z M71.0005815,64 L85.2115057,64 C85.2673283,63.816129 85.3225694,63.6316888 85.3760661,63.4449715 L71,63.4449715 L71,64 L71.0005815,64 Z" id="Shape" fill="#FFFFFF"></path>
                <path d="M18.2327727,54 L18.2327727,53.2614964 L17.5257732,53.2614964 C15.6945198,53.3921421 15.6424308,50.9689101 15.6424308,50.9689101 L15.6424308,49.7296891 L15.6684753,39.3977451 C18.8339664,39.3977451 19.3836137,39.5551759 19.3836137,39.5551759 C20.9278351,39.5551759 21.1627781,41.6110694 21.1627781,41.6110694 L22,41.6110694 L21.8431905,38 L7.15735214,38 L7,41.6110694 L7.83776451,41.6110694 C7.83776451,41.6110694 8.07325014,39.5551759 9.61692892,39.5551759 C9.61692892,39.5551759 10.1660336,39.3955586 13.3315247,39.3955586 L13.3586544,49.7296891 L13.3586544,50.9689101 C13.3586544,50.9689101 13.3054802,53.3926888 11.4742268,53.2614964 L10.7677699,53.2614964 L10.7677699,54 L18.2327727,54 L18.2327727,54 Z" id="Path" fill="#E1DFC3"></path>
                <path d="M21,42.7664637 L27.0148282,42.7664637 L27.0148282,43.6346178 C27.0148282,43.6346178 25.1718916,43.1462459 25.1718916,44.9360049 L25.1718916,50.2540814 C25.1718916,50.2540814 25.4977767,53.048716 27.9632664,53.048716 C30.428756,53.048716 31.2406595,51.9903895 31.5120431,50.4712606 L31.5120431,44.9365675 C31.5120431,44.9365675 31.9452456,43.2553982 29.8320491,43.6351804 L29.8320491,42.8204772 L34.8180916,42.8204772 L34.8180916,43.6886312 C34.8180916,43.6886312 32.975155,43.1468086 32.975155,44.882554 L32.975155,49.9288753 C32.975155,49.9288753 33.0296565,54.5414008 27.990798,54.5414008 C27.990798,54.5414008 23.4930213,54.7023159 22.8963144,50.3637962 L22.8963144,44.9365675 C22.8963144,44.9365675 22.7884352,43.6351804 21.8669668,43.6351804 L21,43.6351804 L21,42.7664637 L21,42.7664637 Z M35.9013788,42.8199145 L35.9013788,43.5260282 L36.6604664,43.5260282 C36.6604664,43.5260282 37.6622822,43.6346178 37.6622822,44.5292159 L37.6622822,51.6651834 C37.6622822,51.6651834 38.0145753,53.7272602 36.4435842,53.4014915 L35.9553184,53.4014915 L35.9553184,54.1616186 L46.5763645,54.1616186 C46.5763645,54.1616186 46.5763645,51.8817999 46.8471862,50.7970293 L46.1420382,50.7970293 C46.1420382,50.7970293 46.3055427,53.076848 43.1624367,53.076848 C40.0193308,53.076848 40.3997174,52.4253105 40.1283337,51.3945534 L40.1283337,44.5292159 C40.1283337,44.5292159 40.2907144,43.5260282 40.832358,43.5260282 L41.8622674,43.5260282 L41.8622674,42.7664637 L35.9013788,42.8199145 Z M47.7147149,42.7664637 L47.7147149,43.4720147 L48.4732407,43.4720147 C48.4732407,43.4720147 49.4761803,43.5789164 49.4761803,44.4752024 L49.4761803,51.6106072 C49.4761803,51.6106072 49.8273496,53.6721215 48.2557966,53.347478 L47.7686546,53.347478 L47.7686546,54.1070424 L58.3902625,54.1070424 C58.3902625,54.1070424 58.3902625,51.8272238 58.6610843,50.7430158 L57.9553744,50.7430158 C57.9553744,50.7430158 58.1177551,53.0217092 54.9746492,53.0217092 C51.8315432,53.0217092 52.2102442,52.3707344 51.9416699,51.3405399 L51.9416699,44.4752024 C51.9416699,44.4752024 52.1040506,43.4720147 52.646256,43.4720147 L53.6756036,43.4720147 L53.6756036,42.7107623 L47.7147149,42.7664637 L47.7147149,42.7664637 Z M55.0836521,39.3484236 L55.0836521,40.0528493 C55.0836521,40.0528493 56.6563288,39.7276432 57.739616,41.462826 L62.1283898,47.7582088 L62.1283898,50.9585071 C62.1283898,50.9585071 62.3458338,53.291214 60.6119001,53.291214 L59.7988729,53.291214 L59.7988729,54.0519037 L66.9509279,54.0519037 L66.9509279,53.2383258 L66.0839611,53.2383258 C66.0839611,53.2383258 64.3511511,53.1837496 64.6747888,50.9585071 L64.6747888,47.8662358 L69.0107467,41.4622634 C69.0107467,41.4622634 70.1485353,39.7276432 71.7189646,39.9982732 L71.7189646,39.2932849 L66.0828373,39.2932849 L66.0828373,39.9442597 C66.0828373,39.9442597 68.5764205,39.7282059 67.3296289,41.462826 L64.0241423,46.1839411 L60.7725952,41.462826 C60.7725952,41.462826 59.3634229,39.9442597 61.9115076,39.9442597 L61.9115076,39.2932849 L55.0836521,39.3484236 L55.0836521,39.3484236 Z M72.8033754,39.3484236 C72.8033754,39.3484236 74.6446265,38.8049131 74.9160101,39.0755431 C74.9160101,39.0755431 73.7242819,42.8750533 71.9903482,42.8750533 C71.9903482,42.8750533 71.4869119,42.9172513 71.8729172,42.4288795 C71.8729172,42.4288795 73.0983577,40.658813 72.8033754,39.3484236 Z M79.8638455,43.1676263 L80.2841249,42.3050986 L81.0095003,42.3050986 L81.0095003,45.9605729 L80.2268141,45.9605729 C80.2268141,45.9605729 80.148714,43.5659756 77.528148,43.4624498 C77.528148,43.4624498 75.6689172,43.4967709 75.6689172,44.7109487 C75.6689172,44.7109487 75.2143636,45.7338289 78.0164139,46.8456062 C78.0164139,46.8456062 80.8049793,47.9461307 81.3713452,48.9459426 C81.3713452,48.9459426 82.0528946,49.899618 81.9967075,50.8983046 C81.9967075,50.8983046 81.9967075,53.7143195 78.855849,54.2133815 C78.855849,54.2133815 76.9966182,54.8035912 74.9328662,53.2827743 C74.9328662,53.2827743 74.433363,53.896615 74.433363,54.3275975 L73.6860747,54.3275975 L73.6860747,50.0588452 L74.4906738,50.0588452 C74.4906738,50.0588452 74.6255229,53.2934645 78.0046146,53.1460527 C78.0046146,53.1460527 79.8868822,53.30528 80.0458917,51.7265112 C80.0458917,51.7265112 80.2391753,50.4667594 77.6983949,49.4118088 C77.6983949,49.4118088 74.7749805,48.1745627 74.2406413,47.1179241 C74.2406413,47.1179241 73.6961883,46.3127858 73.6961883,45.1762523 C73.6961883,45.1762523 73.8214856,42.3956837 77.3022759,42.3157888 C77.3028378,42.3163514 78.6176158,42.2477093 79.8638455,43.1676263 L79.8638455,43.1676263 Z M26.4007033,60.2752685 L26.6984949,60.2752685 L26.6984949,58.5575276 C26.6984949,58.5575276 26.5866826,58.4343093 26.4647566,58.5575276 L26.2209046,59.0273322 C26.2209046,59.0273322 25.4432753,58.2655172 24.5313588,58.2655172 C23.6194422,58.2655172 21.8944985,58.7465747 21.6326667,60.9796942 C21.6326667,60.9796942 21.5062457,63.7461968 24.495399,63.9999739 C24.495399,63.9999739 25.5253084,64.0168268 26.2293327,63.1948093 C26.2293327,63.1948093 26.4012652,63.1948093 26.5091444,63.7011856 C26.5091444,63.7011856 26.6271373,63.8092125 26.7350165,63.7011856 L26.7350165,62.0554626 C26.7350165,62.0554626 26.5540941,61.7195663 26.4096933,62.0830319 C26.4096933,62.0830319 26.0023368,63.6162269 24.4948371,63.5835937 C24.4948371,63.5835937 22.8423748,63.6387325 22.8423748,60.9791316 C22.8423748,60.9791316 22.7788833,58.6824337 24.5307969,58.6824337 C24.5307969,58.683559 26.0394203,58.6199806 26.4007033,60.2752685 L26.4007033,60.2752685 Z M34.8804593,61.1321698 C34.8804593,63.64886 32.9661651,63.5841564 32.9661651,63.5841564 C31.0872687,63.5841564 31.051309,61.1321698 31.051309,61.1321698 C31.1417702,58.7105657 32.9661651,58.6559896 32.9661651,58.6559896 C34.9709205,58.7640166 34.8804593,61.1321698 34.8804593,61.1321698 Z M32.9661651,58.2936492 C32.9661651,58.2936492 30.0393794,58.3510385 29.8331728,61.1321698 C29.8331728,61.1321698 29.8337347,63.7799552 32.9661651,63.9690024 C32.9661651,63.9690024 35.9103687,63.9397451 36.0985978,61.1321698 C36.0985978,61.1321698 36.1165753,58.4146169 32.9661651,58.2936492 Z M38.8815422,58.420806 L38.8815422,58.6385478 L39.3692461,58.6385478 C39.3692461,58.6385478 39.6810845,58.8140916 39.6810845,58.9496879 L39.6810845,62.7210661 C39.6810845,62.7210661 39.8030105,63.5475848 39.2209122,63.5475848 L38.908512,63.5475848 L38.908512,63.821028 L41.550429,63.821028 L41.6453852,63.5340814 L41.2526375,63.5340814 C41.2526375,63.5340814 40.8458429,63.5470221 40.8458429,62.7210661 L40.8458429,61.1467984 L42.1465741,61.1467984 C42.1465741,61.1467984 42.5528068,61.2435725 42.5528068,61.7178784 C42.5528068,61.7178784 42.6814752,61.9541873 42.8376753,61.7994612 L42.8376753,60.0080144 L42.5932615,60.0080144 C42.5932615,60.0080144 42.7292342,60.7411347 41.8892372,60.7411347 L40.8458429,60.7411347 L40.8458429,58.8287202 L42.647763,58.8287202 C42.647763,58.8287202 43.5416996,58.6250444 43.6102479,59.5612779 C43.6102479,59.5612779 43.8394912,59.6839335 43.8394912,59.5753439 C43.8394912,59.4667543 43.7726285,58.3544144 43.7726285,58.3544144 L38.8815422,58.420806 L38.8815422,58.420806 Z M46.6707588,58.420806 L46.6707588,58.6385478 L47.1590246,58.6385478 C47.1590246,58.6385478 47.470863,58.8140916 47.470863,58.9496879 L47.470863,62.7210661 C47.470863,62.7210661 47.5916652,63.5475848 47.0090051,63.5475848 L46.6982904,63.5475848 L46.6982904,63.821028 L49.3396457,63.821028 L49.43404,63.5340814 L49.0424159,63.5340814 C49.0424159,63.5340814 48.6361833,63.5470221 48.6361833,62.7210661 L48.6361833,61.1467984 L49.9363526,61.1467984 C49.9363526,61.1467984 50.3425853,61.2435725 50.3425853,61.7178784 C50.3425853,61.7178784 50.4712537,61.9541873 50.6268919,61.7994612 L50.6268919,60.0080144 L50.38304,60.0080144 C50.38304,60.0080144 50.517889,60.7411347 49.6773301,60.7411347 L48.6356214,60.7411347 L48.6356214,58.8287202 L50.4375414,58.8287202 C50.4375414,58.8287202 51.3297925,58.6250444 51.3966551,59.5612779 C51.3966551,59.5612779 51.6292697,59.6839335 51.6292697,59.5753439 C51.6292697,59.4667543 51.5612833,58.3544144 51.5612833,58.3544144 L46.6707588,58.420806 Z M54.6498878,58.270581 L54.635841,58.6104157 L55.0021808,58.6104157 C55.0021808,58.6104157 55.4421258,58.5687804 55.4421258,59.0509631 L55.4421258,62.9101132 C55.4421258,62.9101132 55.558433,63.4930086 54.9341945,63.4930086 L54.6644964,63.4930086 L54.6644964,63.7366319 L59.6893081,63.7366319 L59.7561707,62.5579004 C59.7561707,62.5579004 59.655034,62.4414338 59.5398504,62.5579004 C59.5398504,62.5579004 59.5269274,63.3174649 58.8212175,63.3174649 L57.1013306,63.3433463 C57.1013306,63.3433463 56.7097066,63.3315309 56.6214928,62.8628515 L56.6214928,61.1321698 L57.5895964,61.1321698 C57.5895964,61.1321698 58.3335135,60.9982614 58.3335135,61.7173157 C58.3335135,61.7173157 58.6043353,61.8517868 58.6043353,61.7173157 L58.6043353,60.0074517 C58.6043353,60.0074517 58.3604833,59.8729807 58.3604833,60.0074517 C58.3604833,60.0074517 58.414423,60.6854333 57.5890346,60.6854333 L56.620931,60.6854333 L56.620931,58.7330713 L58.0773004,58.7330713 C58.0773004,58.7330713 59.2139653,58.5575276 59.2139653,59.5185173 C59.2139653,59.5185173 59.4847871,59.6141661 59.4847871,59.5185173 L59.3617373,58.270581 L54.6498878,58.270581 L54.6498878,58.270581 Z M62.4671979,58.270581 L62.4531512,58.6104157 L62.8183673,58.6104157 C62.8183673,58.6104157 63.2594359,58.5687804 63.2594359,59.0509631 L63.2594359,62.9101132 C63.2594359,62.9101132 63.3746195,63.4930086 62.7515046,63.4930086 L62.4806828,63.4930086 L62.4806828,63.7366319 L67.5066182,63.7366319 L67.5746046,62.5579004 C67.5746046,62.5579004 67.4723441,62.4414338 67.3571606,62.5579004 C67.3571606,62.5579004 67.3431138,63.3174649 66.6407752,63.3174649 L64.9203264,63.3433463 C64.9203264,63.3433463 64.5264549,63.3315309 64.438803,62.8628515 L64.438803,61.1321698 L65.4091541,61.1321698 C65.4091541,61.1321698 66.1519474,60.9982614 66.1519474,61.7173157 C66.1519474,61.7173157 66.423893,61.8517868 66.423893,61.7173157 L66.423893,60.0074517 C66.423893,60.0074517 66.1789173,59.8729807 66.1789173,60.0074517 C66.1789173,60.0074517 66.2339806,60.6854333 65.4085922,60.6854333 L64.4382411,60.6854333 L64.4382411,58.7330713 L65.8946106,58.7330713 C65.8946106,58.7330713 67.0312754,58.5575276 67.0312754,59.5185173 C67.0312754,59.5185173 67.303221,59.6141661 67.303221,59.5185173 L67.181295,58.270581 L62.4671979,58.270581 L62.4671979,58.270581 Z" id="Shape" fill="#E1DFC3"></path>
            </g>
        </g>
    </g>
</svg>