<?xml version="1.0" encoding="UTF-8"?>
<svg width="74px" height="108px" viewBox="0 0 74 108" version="1.1" xmlns="http://www.w3.org/2000/svg" xmlns:xlink="http://www.w3.org/1999/xlink">
    <title>03</title>
    <g id="Page-1" stroke="none" stroke-width="1" fill="none" fill-rule="evenodd">
        <g id="Homepage_full" transform="translate(-415.000000, -4392.000000)" fill-rule="nonzero">
            <g id="03" transform="translate(415.000000, 4392.000000)">
                <path d="M30.3518717,74.0659321 C31.1433155,76.0150356 32.2117647,77.4868076 33.4385027,78.8392468 C36.7229947,82.3794551 40.8385027,84.6865572 45.231016,86.4367726 C51.6417112,89.022318 58.3294118,90.49409 65.1358289,91.448753 C66.1647059,91.6078634 67.1935829,91.7271963 68.3807487,91.8863068 C68.2224599,93.0000802 68.1037433,94.1138536 67.8663102,95.227627 C67.4705882,97.2562858 67.1144385,99.2849445 66.6,101.273826 C65.373262,105.808474 62.484492,107.956466 57.8149733,107.996244 C52.0374332,108.075799 46.4973262,106.88247 41.0363636,105.291365 C32.8053476,102.86493 25.0096257,99.4838326 17.7679144,94.7502956 C9.10160428,89.1018733 3.91764706,81.1463489 1.89946524,71.0826105 C1.26631016,67.9401784 0.870588235,64.718191 0.79144385,61.5359812 C0.47486631,49.2049184 0.277005348,36.8738556 0.079144385,24.5030151 C0,18.5761495 0.0395721925,12.6492838 0,6.76219574 C0,1.9888811 1.89946524,0.039777622 6.64812834,0 L67.3518717,0 C68.1828877,0 69.0139037,0.039777622 69.8053476,0.159110488 C72.3379679,0.517109086 73.6438503,2.06843634 73.9604278,4.97220275 C74,5.36997897 74,5.80753281 74,6.20530903 C74,25.8156767 74,45.4260443 73.9604278,64.9966343 C73.9604278,66.3888511 73.7625668,67.8606231 73.3668449,69.2130623 C72.5754011,72.1168287 70.3989305,73.7477112 67.3914439,73.9465993 C66.797861,73.9863769 66.2042781,73.9863769 65.571123,73.9863769 L31.855615,73.9863769 C31.459893,74.0659321 31.0245989,74.0659321 30.3518717,74.0659321 L30.3518717,74.0659321 Z" id="Path" fill="#C4002B"></path>
                <path d="M9.19926272,27.1279654 C9.23886886,24.4822775 9.00123202,21.8365897 9.00123202,19.1909018 C8.96162588,16.6241897 9.87256709,15.4395533 12.3677539,14.9262109 C14.4668793,14.4523564 16.6056108,14.3733806 18.7443423,14.9262109 C21.0811045,15.558017 21.8732273,16.5452139 21.9128335,18.9539745 C21.9128335,21.2837594 22.1108642,20.7704169 20.0117388,20.8888806 C19.5364651,20.8888806 19.0215853,20.8493927 18.5067055,20.8888806 C17.6749766,20.9283684 17.0016722,21.0073442 16.8432476,19.7437321 C16.7244292,18.8355109 15.6946696,18.9539745 14.9421529,18.9934624 C14.1896363,19.0329503 13.7935749,19.4278291 13.7935749,20.1386109 C13.833181,22.0735169 13.8727872,23.9689351 13.9519994,25.9038412 C13.9916056,26.8910381 14.5460915,27.2069411 15.7738819,27.1279654 C16.8036415,27.0489896 17.1204906,26.7330866 17.1204906,25.7064018 L17.1204906,24.8376684 C18.7047362,24.8376684 20.1305572,24.8376684 21.5959844,24.8771563 C21.7544089,24.8771563 22.071258,25.1535715 22.071258,25.311523 C22.071258,26.3776957 22.1504703,27.4833563 21.9524396,28.5100411 C21.6751966,29.9316048 20.5662247,30.7213623 19.219616,31.1162411 C16.962066,31.7480472 14.7045161,31.7875351 12.4469662,31.2741926 C10.5854776,30.839826 9.15965658,29.536726 9.19926272,27.1279654 L9.19926272,27.1279654 Z M18.942373,42.7256774 C19.1007976,42.7256774 19.3384344,43.0810683 19.5364651,43.2785077 C20.0117388,45.8452198 18.942373,47.5037107 16.3283678,47.8591017 C14.8629407,48.056541 13.3183012,47.9775653 11.8924802,47.740638 C10.1102039,47.424735 9.39729341,46.3190744 9.35768728,44.502632 C9.278475,42.2518229 9.19926272,40.0405017 9.15965658,37.7896926 C9.12005044,36.2496653 9.83296095,35.3019563 11.3379942,34.9070775 C13.0014521,34.4727108 14.7441222,34.3937351 16.4867924,34.749126 C18.5859178,35.1834926 19.2592221,36.052226 19.2988283,38.2240593 L19.2988283,39.5271593 L15.536245,39.5271593 C15.4174266,38.5794502 15.0213652,37.987132 13.9123933,38.1055956 C13.1202705,38.1845714 12.8430275,38.5794502 12.8826337,39.290232 C12.9222398,40.593332 12.961846,41.8569441 13.0014521,43.1600441 C13.0014521,44.1867289 13.3183012,44.5421199 14.2292424,44.5421199 C15.1401836,44.5421199 15.3778205,44.2657047 15.4174266,43.199532 C15.4570327,43.0810683 15.4570327,43.0020926 15.536245,42.6861896 C16.6452169,42.6861896 17.793795,42.6861896 18.942373,42.7256774 L18.942373,42.7256774 Z M55.1027783,13.3466958 C54.5482924,13.4256715 54.3106555,13.2282321 54.1918371,12.6754018 C53.9542003,11.7276927 53.6769573,10.8194715 53.3997143,9.71381092 C55.4196274,9.47688365 57.3207221,9.2004685 59.2218168,9.00302911 C59.4198475,8.96354123 59.8159089,9.31893214 59.855515,9.55585941 C60.0535457,10.5430564 60.132758,11.5697412 60.2515764,12.7148897 C59.6574843,12.7938655 59.1029984,12.8728412 58.5089063,12.951817 C57.3603283,13.0702806 56.2117502,13.1887442 55.1027783,13.3466958 L55.1027783,13.3466958 Z M54.0334125,30.5634108 C51.6966503,30.3659714 51.1421644,29.6946775 51.0233459,27.246429 C50.8649214,24.1663745 51.0629521,21.0468321 51.1817705,17.9667776 C51.2609828,16.2293109 52.1323179,15.202626 53.8353818,15.0841624 C56.0137195,14.9656988 58.1920572,15.0446745 60.3703949,15.202626 C61.5189729,15.2816018 62.5091264,16.3872624 62.5487325,17.492923 C62.5883387,19.1909018 62.6279448,20.8888806 62.5487325,22.5868593 C62.4299141,24.4033018 61.7170036,25.1140836 59.8951212,25.2720351 C58.5485124,25.3904987 57.2019037,25.3904987 55.855295,25.4694745 C55.6572643,26.6541108 55.8949011,27.0489896 57.0434791,27.0884775 C58.3504817,27.1279654 59.6970905,27.0884775 61.0436992,27.0884775 L61.0436992,30.6028987 C58.6277247,30.6028987 56.3305686,30.7608502 54.0334125,30.5634108 L54.0334125,30.5634108 Z M55.6176581,19.5857806 C55.578052,19.9806594 55.578052,20.415026 55.6176581,20.7704169 C55.6968704,21.1652957 55.4592336,21.8365897 56.1721441,21.7576139 C56.8454484,21.6786381 57.7959958,21.6786381 58.152451,21.2442715 C59.0633923,20.1780988 58.1920572,18.48012 56.8058423,18.2826806 C56.5285993,18.2431927 56.2117502,18.2826806 55.7760827,18.2826806 C55.7364765,18.796023 55.6572643,19.1909018 55.6176581,19.5857806 Z M33.992706,38.5794502 C33.6758569,38.6979138 33.3986139,39.1717684 33.43822,39.5271593 C33.4778262,39.8430623 33.7946753,40.277429 34.1115244,40.3958926 C34.4679797,40.5143562 34.9432533,40.4353805 35.3393147,40.4353805 C35.8145884,40.4353805 36.2898621,40.3958926 36.7651358,40.4353805 C38.2305629,40.5538441 37.3592278,41.6595047 37.5176524,42.3307987 C37.6364708,42.7651653 37.7948954,43.515435 36.8047419,43.4759471 C36.1710437,43.4364593 35.4977393,43.4759471 34.8244349,43.4759471 C33.6362507,43.515435 33.3986139,43.7128744 33.3986139,44.8580229 C33.3590078,45.805732 33.3590078,46.7929289 33.3986139,47.7801259 C33.3986139,48.3724441 33.2005832,48.6093713 32.6064911,48.5698835 C31.8143683,48.5303956 31.0222455,48.6093713 30.2301228,48.5303956 C29.9528798,48.4909077 29.5568184,48.1355168 29.5568184,47.8985895 C29.6360307,44.4631441 29.6756368,41.0276987 29.8736675,37.5922532 C29.9528798,36.2891532 30.6657903,35.6573472 32.0916113,35.5388835 C33.8342814,35.4204199 35.6165577,35.4993957 37.4384401,35.4993957 L37.4384401,38.3820108 C36.6859235,38.3820108 35.973013,38.3425229 35.2997086,38.3820108 C34.8640411,38.4214987 34.3491613,38.3820108 33.992706,38.5794502 L33.992706,38.5794502 Z M40.804962,36.9604472 C42.1515707,36.8419835 43.5377856,36.9209593 45.082425,36.9604472 L45.082425,39.3297199 L42.8248751,39.3297199 C42.2703891,39.3297199 41.8347216,39.4481835 41.8347216,40.1589653 C41.8347216,40.8697471 42.3496014,40.9487229 42.8644812,40.9487229 L45.0428189,40.9487229 L45.0428189,43.4364593 L42.7060567,43.4364593 C42.0723584,43.4364593 41.7951155,43.7523623 41.8347216,44.3841683 C41.8347216,45.2134138 41.95354,46.0426592 41.7951155,46.8324168 C41.5178725,48.2539804 40.3296883,47.2667835 39.6167778,47.5037107 C39.1415041,47.6221744 38.5870182,47.6221744 38.6266243,46.7929289 C38.7058366,44.1867289 38.7058366,41.580529 38.824655,39.0138168 C38.9038673,37.6317411 39.4187471,37.0789108 40.804962,36.9604472 L40.804962,36.9604472 Z M48.765796,24.4427896 C48.8054021,25.1140836 48.488553,25.311523 47.8548548,25.311523 C46.7458829,25.2720351 45.6765171,25.311523 44.6071514,25.311523 C43.7358163,25.311523 43.2605426,25.7458896 43.3001488,26.6541108 C43.3397549,27.9966987 43.3397549,29.2997987 43.3397549,30.6423866 C43.3397549,31.9059987 43.3397549,31.9059987 42.1119646,31.9059987 L39.0622918,31.9059987 C38.547412,31.9059987 38.3493813,31.7085593 38.3493813,31.155729 C38.4681998,26.8910381 38.4681998,22.6263472 38.6662304,18.3616563 C38.7850489,15.7949442 39.9336269,14.8077473 42.5476321,14.7682594 C44.5675452,14.7287715 46.5874583,14.7682594 48.6865837,14.7682594 L48.6865837,18.5985836 L46.3102154,18.5985836 C45.6765171,18.6380715 45.0428189,18.5985836 44.4091207,18.6775594 C43.5773917,18.7565351 43.3001488,19.3093654 43.3397549,20.1386109 C43.4189672,20.9678563 43.8942409,21.2442715 44.6071514,21.2442715 C45.7161233,21.2837594 46.8250952,21.2837594 47.9340671,21.2442715 C48.488553,21.2442715 48.8054021,21.4417109 48.765796,22.0735169 C48.7261899,22.8632745 48.7261899,23.6530321 48.765796,24.4427896 L48.765796,24.4427896 Z M38.2701691,52.7161107 C38.2701691,53.5058683 38.2701691,54.256138 38.2305629,55.0853834 L38.2305629,61.5219077 C38.1909568,63.6542531 37.3592278,64.7204258 35.2204963,64.9178652 C33.3986139,65.0758167 31.5767315,64.9573531 29.6756368,64.9573531 L29.6756368,62.1142258 L33.9530999,62.1142258 C34.6264042,62.1142258 35.0620718,61.8772986 34.8640411,60.9295895 L32.1708236,60.9295895 C30.4677596,60.8901016 29.438,60.0608561 29.2795754,58.3233895 C29.160757,56.6648986 29.2003631,54.9669198 29.2003631,53.3084289 C29.2003631,53.1109895 29.5172122,52.7555986 29.7152429,52.7555986 C30.7053964,52.6766228 31.6955499,52.7161107 32.8045218,52.7161107 C32.8045218,53.940235 32.7649157,55.0458956 32.8045218,56.1515562 C32.8045218,56.5859228 32.8045218,57.0992652 33.0421587,57.4151683 C33.2797955,57.6915834 33.8342814,57.7705592 34.2303428,57.9679986 C34.3491613,57.6915834 34.5867981,57.3756804 34.5867981,57.0992652 C34.6264042,55.9936046 34.5867981,54.8484562 34.5867981,53.7033077 C34.5867981,53.3874047 34.6264042,53.0715016 34.6264042,52.7161107 L38.2701691,52.7161107 Z M35.3393147,18.3616563 C35.4581332,22.1919806 35.3789209,26.0617927 35.3393147,30.2869957 C32.4084604,30.168532 29.5568184,30.168532 26.7447825,29.9316048 C25.3585676,29.8131411 24.5268387,28.7074805 24.5268387,27.2859169 C24.5268387,25.6669139 24.4872325,24.0479109 24.6852632,22.4683957 C24.8436878,21.1258078 25.477386,20.6519533 26.8239948,20.4940018 C27.8933605,20.3755381 28.9627263,20.415026 30.0320921,20.2965624 C30.3489412,20.2965624 30.6261841,19.9806594 30.9430333,19.8227078 C30.6657903,19.5068048 30.4677596,18.9539745 30.1113043,18.8749988 C29.4776061,18.7170472 28.8043017,18.796023 28.1309974,18.796023 C25.8734474,18.8355109 25.8734474,18.8355109 25.8734474,16.6241897 C25.8734474,15.3605776 25.8734474,15.3605776 27.1012377,15.3605776 C28.9627263,15.4000654 30.863821,15.3210897 32.6857034,15.5185291 C34.6660104,15.7554563 35.2997086,16.4267503 35.3393147,18.3616563 L35.3393147,18.3616563 Z M31.0222455,25.943329 C31.0618517,25.2720351 31.0222455,24.5612533 31.0222455,23.8504715 C28.9231202,23.2976412 28.0121789,24.1663745 28.5666649,26.0617927 C28.8043017,26.930526 29.6360307,26.8910381 30.3489412,26.930526 C31.141064,26.9700139 30.9826394,26.3776957 31.0222455,25.943329 Z M18.9027669,55.4802622 C18.942373,57.2177289 18.942373,58.9551955 18.9027669,60.6926622 C18.9027669,61.3639561 18.7443423,62.0352501 18.5067055,62.6275683 C18.2294625,63.4173258 17.6353704,64.0886198 16.7244292,64.1281076 C14.4272731,64.2860592 12.130117,64.325547 9.63493025,64.4440107 L9.63493025,51.965841 C11.6548434,51.965841 13.7539688,51.8473774 15.813488,52.0053289 C17.5957643,52.1237925 18.8631607,53.6638198 18.9027669,55.4802622 L18.9027669,55.4802622 Z M13.1598767,61.3639561 C14.6253038,61.2454925 14.9025468,60.9690774 14.9025468,59.784441 C14.9025468,58.5603168 14.8233345,57.3361925 14.7837284,56.1120683 C14.7837284,55.8356531 14.7441222,55.4802622 14.5856977,55.3223107 C14.3084547,55.0853834 13.8727872,54.9274319 13.5163319,54.8484562 C13.4371196,54.8484562 13.1598767,55.1643592 13.1598767,55.3617986 L13.1598767,61.3639561 Z M54.7859292,36.7630078 C54.8651415,38.0661078 54.8255353,39.3297199 54.7859292,40.6723077 C54.7067169,41.580529 54.152231,42.1333593 53.2412898,42.212335 C52.2115301,42.2913108 51.1817705,42.3702865 50.0727986,42.4492623 C49.8747679,43.1600441 50.1520109,43.4759471 50.7857091,43.515435 C51.5382258,43.5549229 52.2907424,43.5549229 53.0432591,43.5549229 C53.5581389,43.5549229 53.8353818,43.7523623 53.7957757,44.3446805 C53.7165634,46.5165138 54.0730187,46.1611229 52.0134994,46.1611229 C50.7857091,46.1611229 49.5579188,46.1611229 48.3301285,46.0031714 C47.062732,45.805732 46.5478522,45.2529017 46.5478522,43.9498017 C46.5082461,41.6595047 46.5478522,39.3297199 46.6666706,37.0394229 C46.7458829,35.4599078 47.4587934,34.9070775 49.0034328,34.8675896 C50.3104354,34.8281017 51.5778319,34.8281017 52.8848345,34.9070775 C53.9938064,34.9465654 54.7463231,35.6573472 54.7859292,36.7630078 L54.7859292,36.7630078 Z M50.7064968,39.7245987 C51.4194073,39.7245987 51.894681,39.4481835 51.8550749,38.5794502 C51.8154687,37.5922532 51.4986196,37.1973744 50.5876784,37.1973744 C49.6371311,37.1973744 49.9539802,37.9476441 49.8747679,38.3425229 C49.8747679,39.0533047 49.6767372,39.7640865 50.7064968,39.7245987 Z M28.3686342,37.8686684 C28.3290281,38.8558653 28.3686342,39.8035744 28.3686342,40.8302593 L28.3686342,43.7523623 C28.3290281,44.7790471 27.8537544,45.4898289 26.8636009,45.805732 C25.2793553,46.3190744 23.6555036,46.3190744 22.0316519,45.7662441 C21.1207107,45.4503411 20.645437,44.7790471 20.6058309,43.831338 C20.5662247,41.7779683 20.5662247,39.7245987 20.6058309,37.671229 C20.6058309,36.8419835 21.0811045,36.2101775 21.8336212,35.9337623 C23.6158975,35.2624684 25.3981737,35.2624684 27.18045,36.0127381 C27.9725728,36.368129 28.4082403,36.9604472 28.3686342,37.8686684 L28.3686342,37.8686684 Z M25.3585676,42.7256774 C25.3189615,42.0938714 25.3189615,41.4620653 25.2793553,40.8302593 L25.3585676,40.8302593 C25.3189615,40.1589653 25.2793553,39.5271593 25.2793553,38.8558653 C25.3189615,38.2635472 25.0021123,38.0266199 24.4476264,37.987132 C23.8535343,37.9476441 23.4574729,38.2240593 23.4574729,38.8558653 L23.4574729,42.8046532 C23.497079,43.4364593 23.9327466,43.5944108 24.4476264,43.5549229 C24.9625062,43.5549229 25.3981737,43.3969714 25.3585676,42.7256774 Z M62.9051878,37.4737896 C63.0240062,38.5399623 63.0240062,39.606135 62.9447939,40.6723077 C62.8655816,41.8174562 62.390308,42.212335 61.2417299,42.3307987 C60.6476378,42.3702865 60.0535457,42.3307987 59.4594536,42.4097744 C59.1822107,42.4492623 58.98418,42.6861896 58.7465431,42.8046532 C58.9445738,43.0020926 59.1822107,43.3574835 59.4198475,43.3969714 C60.2515764,43.4759471 61.0833054,43.4364593 61.9546404,43.4364593 L61.9546404,45.6872683 C60.4496071,45.6872683 58.98418,45.7662441 57.558359,45.6477805 C56.1721441,45.5293168 55.6968704,44.9764865 55.6968704,43.5944108 C55.6968704,41.580529 55.7760827,39.5666471 55.8949011,37.5527653 C55.9345072,36.7235199 56.3701748,36.052226 57.281116,36.0127381 C58.706937,35.9732502 60.1723642,35.9337623 61.5981852,36.052226 C62.390308,36.0917138 62.8655816,36.7235199 62.9051878,37.4737896 Z M59.3802414,40.1589653 C60.0931519,40.1194774 60.3703949,39.7640865 60.2911826,39.0533047 C60.3703949,38.2240593 59.8951212,37.9081562 59.2218168,37.9476441 C58.3900879,37.987132 58.6673309,38.6979138 58.6277247,39.1717684 C58.5881186,39.6851108 58.5881186,40.1984532 59.3802414,40.1589653 L59.3802414,40.1589653 Z M27.3784807,54.8089683 C27.4180869,57.4151683 27.3784807,59.9818804 27.4180869,62.5880804 C25.5962044,62.5880804 23.8139282,62.6275683 22.071258,62.5485925 C21.1603168,62.5091046 20.5662247,61.9167864 20.5266186,60.9295895 C20.4870125,59.9029046 20.4870125,58.8367319 20.5662247,57.8100471 C20.6058309,57.0202895 21.1207107,56.5069471 21.9920458,56.4674592 C22.8237747,56.4279713 23.6158975,56.3489956 24.4476264,56.2700198 C24.5268387,56.1515562 24.5664448,56.0725804 24.6456571,55.9541168 C24.3684141,55.7566774 24.1307773,55.4802622 23.8139282,55.4012865 C23.4178668,55.3223107 22.9425931,55.3617986 22.5069256,55.4012865 C21.5959844,55.559238 21.2395291,55.1643592 21.3583475,54.256138 C21.3979537,53.9797228 21.3979537,53.7033077 21.3979537,53.3874047 C22.9821992,53.3874047 24.5664448,53.3084289 26.1110843,53.3874047 C26.9428132,53.4268925 27.3784807,54.0981865 27.3784807,54.8089683 L27.3784807,54.8089683 Z M24.0119589,60.5347107 C25.1209308,60.2582955 24.2892018,59.3500743 24.5268387,58.7182683 C23.6158975,58.5603168 23.0218054,58.5998046 23.0218054,59.5870016 C23.0218054,60.2582955 23.4574729,60.6531743 24.0119589,60.5347107 Z" id="Shape" fill="#FFFFFF"></path>
            </g>
        </g>
    </g>
</svg>