<?xml version="1.0" encoding="UTF-8"?>
<svg width="92px" height="92px" viewBox="0 0 92 92" version="1.1" xmlns="http://www.w3.org/2000/svg" xmlns:xlink="http://www.w3.org/1999/xlink">
    <title>05</title>
    <g id="Page-1" stroke="none" stroke-width="1" fill="none" fill-rule="evenodd">
        <g id="Homepage_full" transform="translate(-822.000000, -4400.000000)" fill-rule="nonzero">
            <g id="05" transform="translate(822.000000, 4400.000000)">
                <polygon id="Path" fill="#FFFFFF" points="0 0 92 0 92 92 0 92"></polygon>
                <polygon id="Path" fill="#C1352C" points="0 92 92 92 92 0 0 0"></polygon>
                <path d="M46.1408701,77.20143 C48.2485099,76.5391462 63.1802325,64.8787848 63.1802325,62.686941 C61.9906341,63.2940344 57.8468757,65.3467762 56.2057999,64.341524 C55.1547738,63.6803666 52.2542547,60.7029056 52.2542547,58.6484744 C52.2542547,56.5264632 54.0344616,51.1504762 55.4134793,48.2428478 C57.5188841,43.6659941 61.5391566,36.8426693 63.2489598,35.3181778 C63.2489598,35.3181778 63.6322687,35.1942811 63.9591428,35.1942811 C65.7393497,35.1942811 67.9805329,38.6909816 68.4314516,39.4247875 C70.0881727,41.8751248 65.3420719,46.4542312 63.1802325,50.889167 C62.6466174,51.9541148 59.0364741,56.9938913 60.7468361,57.5880319 C61.1988723,57.7254446 61.0753865,57.8499043 63.2495186,56.1953213 C65.411358,54.6116972 70.2122172,48.7694085 75.0074888,39.6314696 C75.4070017,38.8272679 76.8530705,37.5043899 77.3766279,37.9768866 C78.6360712,38.9691859 80.9331303,41.0185486 80.9973876,42.0812437 C81.0683501,43.0037103 79.6843035,47.7771092 77.9789703,51.4996394 C75.2846334,57.1183511 72.4522829,61.7644744 67.9810917,65.403656 C63.5087829,69.0552272 59.6270826,72.5006796 54.4289456,75.283285 C53.4432943,75.8081562 49.833151,77.9307305 48.5770603,78 C47.1259626,78 45.8816058,77.9307305 46.1408701,77.20143 L46.1408701,77.20143 Z M28.9785807,66.2714955 C25.7528638,65.7347978 25.2321002,64.1477948 24.76833,60.9630885 C23.5915831,53.6728988 34.9684795,28.8254317 35.8172348,26.8920813 C36.2122776,25.899782 39.891707,18.2807031 42.2021764,17.0918587 C42.2021764,17.0918587 43.5845467,16.8851766 43.7767599,17.0918587 C46.1408701,19.8108263 48.4485457,22.1260036 46.0743778,25.7753222 C45.4178357,26.7676215 43.0509316,32.1976725 42.3949483,33.8516923 C39.3050098,41.4189599 34.8327011,51.0952859 32.6585689,58.9784899 C32.0685192,61.1027538 30.4296784,67.1945253 28.9785807,66.2714955 L28.9785807,66.2714955 Z M42.6536538,66.5333679 C40.6845863,65.8710841 38.9071733,63.0180829 38.9071733,61.8320543 C38.9071733,58.9114731 40.0280443,52.157981 43.1867101,43.7352636 C46.5387067,34.5838087 51.2160801,25.1141648 55.741471,18.818527 C55.741471,18.818527 56.9310694,18.4152999 57.451833,18.6816776 C58.8314095,19.3433982 61.0748277,21.3279968 61.1983135,22.5917423 L61.1983135,24.7835861 C61.1435551,26.8926445 56.2052411,35.9072499 54.2356149,41.0889444 C52.3235408,46.2582493 50.2153423,50.6284209 48.7787724,54.9963399 C47.8512321,57.7823244 44.8970721,66.6026373 44.4992355,66.6026373 C44.1712439,66.74005 43.3096371,66.74005 42.6536538,66.5333679 L42.6536538,66.5333679 Z M13.3366752,66.0084967 C12.6672816,65.9414799 11.1619843,63.6798035 11.0262058,61.8320543 C10.8339926,58.0560233 11.6827479,56.4588832 14.1161443,48.8341726 C14.977751,45.9811714 16.7546053,41.6802692 17.2060828,40.5511204 C18.2599027,38.0286979 20.2960212,33.5211136 23.1959816,33.1905349 C23.8525237,33.1257708 24.3168526,33.0018741 24.8370574,33.2603675 C25.4935995,33.7981915 26.4244923,34.3895163 26.6144705,35.193718 C26.9424621,36.1860173 25.4248721,40.414271 25.1656078,41.4195231 C23.7832375,46.1878535 20.9520046,52.0887115 19.0522232,60.44047 C18.8471586,61.4338956 17.4675821,65.8710841 17.0161046,66.0777662 C16.4266137,66.4089081 14.7184867,66.202226 13.3366752,66.0084967 L13.3366752,66.0084967 Z M25.5600918,29.9523278 C23.7139514,29.3446712 22.4008672,25.6362201 25.2315414,22.123751 C28.0627744,18.6090291 32.0679604,17.5468972 32.6580102,20.263049 C33.2581176,22.989901 32.8636336,23.3903123 32.465797,24.5065082 C31.7399688,26.4370428 28.583538,29.4815207 27.8577097,29.9523278 C27.3375049,30.5442157 25.4908057,30.006955 25.5600918,29.9523278 L25.5600918,29.9523278 Z M74.670557,63.0434254 C76.0087853,63.0434254 77.1039534,64.1477948 77.1039534,65.4993943 C77.0996595,66.8521256 76.0127021,67.9476564 74.670557,67.9519842 C73.3295349,67.9519842 72.2215154,66.8476147 72.2215154,65.4993943 C72.2220741,64.1477948 73.3295349,63.0434254 74.670557,63.0434254 L74.670557,63.0434254 Z" id="Shape" fill="#FFFFFF"></path>
                <path d="M74.0082014,64 C72.9027533,64 72,64.9068469 72,66.0017632 C72,67.0931531 72.9027533,68 74.0082014,68 C75.0960748,68 76,67.0931531 76,66.0017632 C76.0005855,64.9068469 75.0966606,64 74.0082014,64 Z" id="Path" fill="#C1352C"></path>
                <path d="M74,67 L74.0025126,65.0012662 L74.5687814,65.0012662 C74.8288317,64.9793189 74.9839824,65.2457487 74.9839824,65.5616875 C74.9839824,65.8296485 74.8740578,66.0241116 74.714196,66.0532045 C74.7758551,66.060445 74.8338401,66.1035745 74.8775126,66.1746802 C74.9104899,66.2323556 74.9321608,66.2930934 74.9400126,66.4390683 L74.9607412,66.7907352 C74.9651382,66.8734203 74.9827261,66.9550846 75,67 L74.741206,67 C74.6922111,66.8422858 74.718593,66.667218 74.6940955,66.5023582 C74.6875,66.4605052 74.6818467,66.4166106 74.6683417,66.3767993 C74.6315955,66.2721669 74.5690955,66.2114291 74.4805276,66.2114291 L74.2578518,66.2083667 L74.2565955,67 L74,67 L74,67 Z" id="Path" fill="#FFFFFF"></path>
                <path d="M74,66.9944725 L74.5752972,66.9999567 C74.844782,67.0036129 75,66.7751036 75,66.5054626 C74.9981148,66.3326997 74.9355096,66.1720471 74.8322325,66.0749511 C74.7780713,66.0265071 74.7357992,66.0018281 74.5924703,66.0018281 L74.0006605,66 L74.0006605,66.9944725 L74,66.9944725 L74,66.9944725 Z" id="Path" fill="#C1352C"></path>
            </g>
        </g>
    </g>
</svg>