<?xml version="1.0" encoding="UTF-8"?>
<svg width="138px" height="26px" viewBox="0 0 138 26" version="1.1" xmlns="http://www.w3.org/2000/svg" xmlns:xlink="http://www.w3.org/1999/xlink">
    <title>logo</title>
    <g id="Symbols" stroke="none" stroke-width="1" fill="none" fill-rule="evenodd">
        <g id="NAVBAR" transform="translate(-108.000000, -50.000000)" fill="#092436" fill-rule="nonzero">
            <g id="logo" transform="translate(108.277344, 50.000000)">
                <path d="M14.6132812,7.67578125 L14.6132812,6.31640625 L17.6132812,6.31640625 L17.6132812,12.5273438 L14.6132812,12.5273438 C13.7304688,10.2851562 12.2578125,9.1640625 10.1953125,9.1640625 C9.171875,9.1640625 8.26367188,9.4296875 7.47070312,9.9609375 C6.67773438,10.4921875 6.06054688,11.2167969 5.61914062,12.1347656 C5.17773438,13.0527344 4.95703125,14.0703125 4.95703125,15.1875 C4.95703125,16.234375 5.16601562,17.1933594 5.58398438,18.0644531 C6.00195312,18.9355469 6.5859375,19.6308594 7.3359375,20.1503906 C8.0859375,20.6699219 8.94921875,20.9296875 9.92578125,20.9296875 C11.1289062,20.9296875 12.1738281,20.5136719 13.0605469,19.6816406 C13.9472656,18.8496094 14.5429688,17.7539062 14.8476562,16.3945312 L18.328125,18.046875 C17.015625,22.140625 14.1054688,24.1875 9.59765625,24.1875 C7.66015625,24.1875 5.96679688,23.8164062 4.51757812,23.0742188 C3.06835938,22.3320312 1.953125,21.2773438 1.171875,19.9101562 C0.390625,18.5429688 0,16.9453125 0,15.1171875 C0,13.390625 0.40234375,11.8359375 1.20703125,10.453125 C2.01171875,9.0703125 3.12304688,7.98632812 4.54101562,7.20117188 C5.95898437,6.41601562 7.546875,6.0234375 9.3046875,6.0234375 C11.4375,6.0234375 13.2070312,6.57421875 14.6132812,7.67578125 Z" id="C"></path>
                <path d="M32.90625,17.8125 C32.90625,19.0390625 32.6171875,20.1445312 32.0390625,21.1289062 C31.4609375,22.1132812 30.6796875,22.8828125 29.6953125,23.4375 C28.7109375,23.9921875 27.6289062,24.2695312 26.4492188,24.2695312 C25.1992188,24.2695312 24.0820312,23.9921875 23.0976562,23.4375 C22.1132812,22.8828125 21.3457031,22.1132812 20.7949219,21.1289062 C20.2441406,20.1445312 19.96875,19.0390625 19.96875,17.8125 C19.96875,16.59375 20.2519531,15.4960938 20.8183594,14.5195312 C21.3847656,13.5429688 22.1640625,12.7753906 23.15625,12.2167969 C24.1484375,11.6582031 25.2460938,11.3789062 26.4492188,11.3789062 C27.6757812,11.3789062 28.78125,11.6582031 29.765625,12.2167969 C30.75,12.7753906 31.5195312,13.5429688 32.0742188,14.5195312 C32.6289062,15.4960938 32.90625,16.59375 32.90625,17.8125 Z M26.4257812,21.2109375 C27.1914062,21.2109375 27.7910156,20.9121094 28.2246094,20.3144531 C28.6582031,19.7167969 28.875,18.859375 28.875,17.7421875 C28.875,16.6953125 28.6582031,15.8769531 28.2246094,15.2871094 C27.7910156,14.6972656 27.1835938,14.4023438 26.4023438,14.4023438 C25.6132812,14.4023438 25.015625,14.6933594 24.609375,15.2753906 C24.203125,15.8574219 24,16.734375 24,17.90625 C24,18.8984375 24.2207031,19.6972656 24.6621094,20.3027344 C25.1035156,20.9082031 25.6914062,21.2109375 26.4257812,21.2109375 Z" id="o"></path>
                <path d="M44.71875,7.734375 L41.8828125,9.9609375 C41.7421875,9.515625 41.5839844,9.1796875 41.4082031,8.953125 C41.2324219,8.7265625 41.0234375,8.61328125 40.78125,8.61328125 C40.4296875,8.61328125 40.1699219,8.7578125 40.0019531,9.046875 C39.8339844,9.3359375 39.75,9.78515625 39.75,10.3945312 L39.75,11.6601562 L41.9296875,11.6601562 L41.9296875,14.5429688 L39.75,14.5429688 L39.75,21.140625 L42.046875,21.140625 L42.046875,23.9765625 L34.03125,23.9765625 L34.03125,21.140625 L35.8359375,21.140625 L35.8359375,14.5429688 L34.1835938,14.5429688 L34.1835938,11.6601562 L35.8359375,11.6601562 L35.8359375,10.3945312 C35.8359375,9.05078125 36.2402344,7.98242188 37.0488281,7.18945312 C37.8574219,6.39648438 39.0351562,6 40.5820312,6 C42.5195312,6 43.8984375,6.578125 44.71875,7.734375 Z" id="f"></path>
                <path d="M54.3984375,7.734375 L51.5625,9.9609375 C51.421875,9.515625 51.2636719,9.1796875 51.0878906,8.953125 C50.9121094,8.7265625 50.703125,8.61328125 50.4609375,8.61328125 C50.109375,8.61328125 49.8496094,8.7578125 49.6816406,9.046875 C49.5136719,9.3359375 49.4296875,9.78515625 49.4296875,10.3945312 L49.4296875,11.6601562 L51.609375,11.6601562 L51.609375,14.5429688 L49.4296875,14.5429688 L49.4296875,21.140625 L51.7265625,21.140625 L51.7265625,23.9765625 L43.7109375,23.9765625 L43.7109375,21.140625 L45.515625,21.140625 L45.515625,14.5429688 L43.8632812,14.5429688 L43.8632812,11.6601562 L45.515625,11.6601562 L45.515625,10.3945312 C45.515625,9.05078125 45.9199219,7.98242188 46.7285156,7.18945312 C47.5371094,6.39648438 48.7148438,6 50.2617188,6 C52.1992188,6 53.578125,6.578125 54.3984375,7.734375 Z" id="f"></path>
                <path d="M65.578125,18.6445312 L56.390625,18.6445312 C56.484375,19.5898438 56.8105469,20.3378906 57.3691406,20.8886719 C57.9277344,21.4394531 58.6484375,21.7148438 59.53125,21.7148438 C60.5078125,21.7148438 61.4609375,21.2304688 62.390625,20.2617188 L65.4375,21.2460938 C64.765625,22.2539062 63.9335938,23.0097656 62.9414062,23.5136719 C61.9492188,24.0175781 60.7734375,24.2695312 59.4140625,24.2695312 C58.0546875,24.2695312 56.8535156,24.0136719 55.8105469,23.5019531 C54.7675781,22.9902344 53.9589844,22.265625 53.3847656,21.328125 C52.8105469,20.390625 52.5234375,19.2890625 52.5234375,18.0234375 C52.5234375,16.7734375 52.8222656,15.640625 53.4199219,14.625 C54.0175781,13.609375 54.8261719,12.8144531 55.8457031,12.2402344 C56.8652344,11.6660156 57.9726562,11.3789062 59.1679688,11.3789062 C60.4648438,11.3789062 61.59375,11.6777344 62.5546875,12.2753906 C63.515625,12.8730469 64.2558594,13.7207031 64.7753906,14.8183594 C65.2949219,15.9160156 65.5625,17.1914062 65.578125,18.6445312 Z M58.9804688,13.9921875 C58.2773438,13.9921875 57.7128906,14.1953125 57.2871094,14.6015625 C56.8613281,15.0078125 56.59375,15.6289062 56.484375,16.4648438 L61.6171875,16.4648438 C61.5078125,15.7304688 61.2089844,15.1347656 60.7207031,14.6777344 C60.2324219,14.2207031 59.6523438,13.9921875 58.9804688,13.9921875 Z" id="e"></path>
                <path d="M74.765625,11.6601562 L74.765625,14.5429688 L72.4921875,14.5429688 L72.4921875,19.921875 C72.4921875,20.3046875 72.5664062,20.5917969 72.7148438,20.7832031 C72.8632812,20.9746094 73.140625,21.0703125 73.546875,21.0703125 C73.8828125,21.0703125 74.2890625,20.984375 74.765625,20.8125 L74.765625,23.5429688 C73.7109375,23.9570312 72.71875,24.1640625 71.7890625,24.1640625 C70.71875,24.1640625 69.9160156,23.8925781 69.3808594,23.3496094 C68.8457031,22.8066406 68.578125,22.0390625 68.578125,21.046875 L68.578125,14.5429688 L67.0195312,14.5429688 L67.0195312,11.6601562 L68.578125,11.6601562 L68.578125,9.75 L72.4921875,6.9375 L72.4921875,11.6601562 L74.765625,11.6601562 Z" id="t"></path>
                <path d="M82.453125,8.15625 C82.453125,8.78125 82.2402344,9.29882812 81.8144531,9.70898438 C81.3886719,10.1191406 80.8828125,10.3242188 80.296875,10.3242188 C79.703125,10.3242188 79.1933594,10.1113281 78.7675781,9.68554688 C78.3417969,9.25976562 78.1289062,8.75 78.1289062,8.15625 C78.1289062,7.5703125 78.3417969,7.06445312 78.7675781,6.63867188 C79.1933594,6.21289062 79.703125,6 80.296875,6 C80.8828125,6 81.3886719,6.21289062 81.8144531,6.63867188 C82.2402344,7.06445312 82.453125,7.5703125 82.453125,8.15625 Z M84.0351562,21.140625 L84.0351562,23.9765625 L76.4296875,23.9765625 L76.4296875,21.140625 L78.3046875,21.140625 L78.3046875,14.5429688 L76.4296875,14.5429688 L76.4296875,11.6601562 L82.2070312,11.6601562 L82.2070312,21.140625 L84.0351562,21.140625 Z" id="i"></path>
                <path d="M98.625,16.125 L98.625,21.140625 L100.476562,21.140625 L100.476562,23.9765625 L94.6875,23.9765625 L94.6875,16.4414062 C94.6875,15.8632812 94.5996094,15.4433594 94.4238281,15.1816406 C94.2480469,14.9199219 93.953125,14.7890625 93.5390625,14.7890625 C92.7890625,14.7890625 92.0351562,15.0585938 91.2773438,15.5976562 L91.2773438,21.140625 L93.1992188,21.140625 L93.1992188,23.9765625 L85.5,23.9765625 L85.5,21.140625 L87.375,21.140625 L87.375,14.5429688 L85.5,14.5429688 L85.5,11.6601562 L91.2773438,11.6601562 L91.2773438,12.8203125 C92.4492188,11.9375 93.6523438,11.4960938 94.8867188,11.4960938 C96.1132812,11.4960938 97.0429688,11.8847656 97.6757812,12.6621094 C98.3085938,13.4394531 98.625,14.59375 98.625,16.125 Z" id="n"></path>
                <path d="M114.515625,17.8125 C114.515625,19.0390625 114.226562,20.1445312 113.648438,21.1289062 C113.070312,22.1132812 112.289062,22.8828125 111.304688,23.4375 C110.320312,23.9921875 109.238281,24.2695312 108.058594,24.2695312 C106.808594,24.2695312 105.691406,23.9921875 104.707031,23.4375 C103.722656,22.8828125 102.955078,22.1132812 102.404297,21.1289062 C101.853516,20.1445312 101.578125,19.0390625 101.578125,17.8125 C101.578125,16.59375 101.861328,15.4960938 102.427734,14.5195312 C102.994141,13.5429688 103.773438,12.7753906 104.765625,12.2167969 C105.757812,11.6582031 106.855469,11.3789062 108.058594,11.3789062 C109.285156,11.3789062 110.390625,11.6582031 111.375,12.2167969 C112.359375,12.7753906 113.128906,13.5429688 113.683594,14.5195312 C114.238281,15.4960938 114.515625,16.59375 114.515625,17.8125 Z M108.035156,21.2109375 C108.800781,21.2109375 109.400391,20.9121094 109.833984,20.3144531 C110.267578,19.7167969 110.484375,18.859375 110.484375,17.7421875 C110.484375,16.6953125 110.267578,15.8769531 109.833984,15.2871094 C109.400391,14.6972656 108.792969,14.4023438 108.011719,14.4023438 C107.222656,14.4023438 106.625,14.6933594 106.21875,15.2753906 C105.8125,15.8574219 105.609375,16.734375 105.609375,17.90625 C105.609375,18.8984375 105.830078,19.6972656 106.271484,20.3027344 C106.712891,20.9082031 107.300781,21.2109375 108.035156,21.2109375 Z" id="o"></path>
                <path d="M134.120349,17.2583116 C134.425551,16.4804704 134.550613,15.5847745 134.395486,14.6325084 C134.700688,14.1422327 134.855715,13.5671017 134.700688,12.9024011 C134.150414,10.3614533 130.813753,9.47047161 128.487594,9.12162163 C125.976344,8.74448652 122.669698,9.14990676 121.539135,11.6908546 C121.44909,11.8935647 121.384057,12.0679897 121.354042,12.2659856 C120.678706,12.0632755 119.94334,12.0632755 119.303021,12.2659856 C119.212976,12.2659856 119.147944,12.2659856 119.057899,12.2942707 C118.077411,12.4404106 117.31203,13.1899666 116.946848,14.024378 C116.581666,14.8587895 116.641696,15.8110556 117.282015,16.5040885 C117.647197,16.8812236 118.202473,17.1121717 118.722732,17.1970743 C119.303021,17.2819297 120.223479,17.3432141 120.773753,17.0508873 C120.893813,17.0226021 120.988861,16.994317 121.078905,16.9377939 C121.16895,17.168742 121.263998,17.4280224 121.384057,17.6590648 C118.722732,17.715635 116.516634,20.284868 118.292518,22.6231056 C120.038387,24.9000588 124.110415,25.2771939 126.801755,25.6213297 C129.678187,25.9655127 134.94581,26.776306 136.871769,23.976125 C138.742651,21.2700391 137.396981,17.7485401 134.120349,17.2583116 Z M120.833733,15.2689239 C120.433534,15.2689239 120.038337,15.2406388 119.668153,15.0662138 C119.578108,15.0378815 119.483061,14.9530732 119.423031,14.8917888 C119.393016,14.8352185 119.393016,14.8352185 119.423031,14.7173638 C119.608123,14.1705179 120.403519,14.1092806 120.953793,13.9678549 C120.863748,14.401466 120.803718,14.8351714 120.833733,15.2689239 Z M126.161386,10.0173175 C127.967285,9.87117766 129.868232,10.2765979 131.519054,10.9978688 C132.619602,11.4598593 133.845212,12.525266 133.630105,13.6519571 C133.510095,13.7085274 133.445013,13.8263821 133.414998,13.9678078 C133.414998,14.0243309 133.414998,14.1139476 133.414998,14.1705179 C133.354968,14.2836113 133.294938,14.373228 133.199891,14.4863685 C132.709647,15.0332144 131.884236,15.2642097 131.023807,15.3207328 C130.8087,15.3207328 130.593543,15.3490651 130.413503,15.3490651 C130.138366,15.3490651 129.863229,15.3490651 129.618107,15.3490651 C130.963777,14.8870746 131.974331,13.9913787 131.02881,12.6101214 C129.713155,10.6490188 126.191401,10.5594492 124.355487,11.7427106 C124.110365,11.8888505 124.050335,12.1481309 124.170395,12.4074113 C125.180898,14.3119435 127.046827,14.5995091 129.007803,13.7650976 C129.498048,13.5623875 129.162881,12.7279761 128.642572,12.9306862 C127.356931,13.3926767 126.161336,13.4209619 125.335925,12.3555552 C126.836672,11.6342843 128.762631,11.8935647 130.048272,12.9919707 C131.488989,14.2035172 128.027265,14.722078 127.386946,14.7503631 C126.191351,14.7786482 125.000758,14.4345125 123.96024,13.9442368 C120.708671,12.4120783 124.105362,10.1916954 126.161386,10.0173175 Z M127.291949,21.4727493 C124.630624,21.5858898 122.334481,20.666623 121.10887,18.4745252 C121.353992,18.3896698 121.5691,18.3001002 121.784207,18.2435299 C122.824725,19.7426891 124.630624,20.8410951 126.776693,21.1003755 C129.62311,21.4445113 132.349467,20.2659641 133.665123,18.1870068 C133.755167,18.2152919 133.850215,18.2435299 133.910245,18.2718622 C132.864724,20.6053857 129.74317,21.3548945 127.291949,21.4727493 Z" id="Shape"></path>
                <path d="M129.655206,0.0203865742 C129.277851,-0.103254861 129.086589,0.365552246 129.308866,0.617986842 C129.846468,1.28255955 130.637362,1.7204563 130.668429,2.66837397 C130.699444,3.83266414 128.962579,4.4663265 128.104433,4.78058181 C127.882155,4.84240253 127.690893,5.06392676 127.727078,5.285451 C127.85114,6.67126542 128.548988,7.27401741 129.686221,7.93343839 C130.16174,8.21678335 130.508079,7.52130028 130.09976,7.23795532 C129.432928,6.76399649 128.962527,6.41883082 128.802229,5.66152703 C130.068693,5.1875682 131.298973,4.46117477 131.650533,3.10627072 C132.027888,1.78737723 130.859639,0.370652455 129.655206,0.0203865742 Z" id="Path"></path>
                <path d="M124.547392,6.51493855 C123.782068,6.27485728 123.682243,5.98239465 123.632331,5.23159504 C123.607375,4.85619524 123.478434,4.51135124 123.1748,4.24507929 C122.284695,3.4986448 121.19078,2.07998276 119.992882,2.00141071 C119.714204,1.97522002 119.660132,2.32006403 119.789072,2.50776393 C120.221647,3.07086363 120.986971,3.41570763 121.544327,3.8434888 C121.951945,4.16214212 122.742226,4.67286046 122.867007,5.20540436 C122.966832,5.63318553 122.941875,6.00858533 123.170641,6.37962002 C123.449319,6.85978255 124.010834,6.94271972 124.493321,6.99510109 C124.776158,7.05189122 124.801114,6.59787572 124.547392,6.51493855 Z" id="Path"></path>
                <path d="M137.375191,4.15864029 C137.204173,3.8794461 136.838275,3.989293 136.814372,4.32798759 C136.790509,5.25253227 136.961527,6.06265311 136.838275,6.93227435 C135.987162,6.59815671 135.036621,6.79038878 134.161646,6.56611804 C133.966765,6.51119459 133.700255,6.67596493 133.724158,6.95973607 C133.771844,7.57762485 133.990588,8.1085515 134.042331,8.6944016 C134.090017,9.08801963 134.60311,9.11548135 134.60311,8.6944016 C134.60311,8.27332184 134.507659,7.85224208 134.455956,7.463201 C135.283205,7.60508657 136.18602,7.43573928 136.913841,7.91174248 C137.132584,8.05362805 137.399054,7.91174248 137.450757,7.66001002 C137.74113,6.67596493 137.908131,5.0511463 137.375191,4.15864029 Z" id="Path"></path>
            </g>
        </g>
    </g>
</svg>